<svg height="509pt" viewBox="0 -11 509.81524 509" width="509pt" xmlns="http://www.w3.org/2000/svg"><path d="m237.632812 416.769531s-32.425781 21.164063-92.839843-25.6875l-56.238281-55.976562c-53.417969-67.328125-36.09375-143.785157-5.03125-196.523438-7.265626 20.800781-10 42.910157-8.023438 64.855469 3.898438 36.425781 17.679688 71.097656 39.851562 100.265625 14.691407 20.3125 31.324219 39.144531 49.664063 56.234375 22.378906 21.167969 46.691406 40.195312 72.617187 56.832031zm0 0" fill="#d84315"/><path d="m165.015625 359.9375-20.222656 31.144531-52.3125 80.984375c-4.800781 7.34375-14.371094 9.882813-22.183594 5.886719l-52.566406-27.222656c-2.914063-1.441407-5.324219-3.730469-6.914063-6.570313-3.660156-6.25-2.941406-14.140625 1.792969-19.625l75.945313-89.429687 26.796874-31.402344 27.136719-5.121094 18.003907-3.414062zm0 0" fill="#cfd8dc"/><path d="m145.902344 347.050781-20.226563 31.148438-52.308593 80.894531c-4.746094 7.417969-14.359376 10.003906-22.1875 5.972656l-40.363282-20.90625c-3.660156-6.25-2.941406-14.140625 1.792969-19.625l75.945313-89.429687 26.796874-31.402344 27.136719-5.121094zm0 0" fill="#f5f5f5"/><path d="m416.832031 433.835938c0 9.425781-7.640625 17.066406-17.066406 17.066406s-17.066406-7.640625-17.066406-17.066406c0-9.425782 7.640625-17.066407 17.066406-17.066407s17.066406 7.640625 17.066406 17.066407zm0 0" fill="#ffeb3a"/><path d="m442.433594 374.101562c-3.234375-.855468-6.378906-2.027343-9.386719-3.496093 29.527344-18.859375 56.660156-100.949219 34.988281-158.636719-25.601562-68.265625-119.46875-179.199219-162.132812-196.265625-6.777344-2.734375-13.851563-4.652344-21.078125-5.71875 15.789062-2.308594 31.910156-.332031 46.675781 5.71875 42.667969 17.066406 136.535156 128 162.132812 196.265625 25.601563 68.265625-17.066406 170.667969-51.199218 162.132812zm0 0" fill="#f57c00"/><path d="m433.046875 370.605469c-33.363281-14.933594-107.261719-67.757813-142.164063-93.355469.085938 6.058594.085938 12.371094 0 18.601562-.425781 27.136719-2.902343 54.441407-10.582031 69.71875-9.964843 20.207032-24.585937 37.753907-42.667969 51.199219 0 0-5.375-3.328125-14.164062-9.386719-20.597656-14.394531-40.132812-30.25-58.453125-47.445312-18.339844-17.089844-34.972656-35.921875-49.664063-56.234375-22.171874-29.167969-35.953124-63.839844-39.851562-100.265625-1.976562-21.945312.757812-44.054688 8.023438-64.855469 2.550781-7.296875 5.871093-14.304687 9.898437-20.90625 27.902344-47.105469 81.917969-65.023437 118.269531-67.585937h.085938l.257812-.253906c19.261719-20.871094 44.828125-34.867188 72.789063-39.851563 7.226562 1.066406 14.300781 2.984375 21.078125 5.71875 42.664062 17.066406 136.53125 128 162.132812 196.265625 21.671875 57.6875-5.460937 139.777344-34.988281 158.636719zm0 0" fill="#ff9801"/><path d="m446.574219 383.148438c-2.09375 0-4.175781-.257813-6.207031-.769532-27.210938-6.824218-108.5-64.484375-154.535157-98.253906-2.460937-1.804688-3.765625-4.78125-3.433593-7.8125.335937-3.03125 2.261718-5.652344 5.054687-6.878906 2.789063-1.222656 6.023437-.867188 8.480469.9375 58.28125 42.753906 127.914062 90.273437 148.574218 95.453125 6.382813 1.570312 13.652344-5.195313 17.433594-9.386719 22.03125-24.6875 42.214844-92.074219 23.695313-141.457031-25.710938-68.605469-118.46875-175.820313-157.300781-191.351563-48.539063-19.421875-89.898438 11.871094-110.269532 32.238282-9.835937 9.90625-18.9375 20.515624-27.230468 31.746093-10.765626 16.34375-25.695313 29.523438-43.253907 38.167969-4.21875 2.109375-9.34375.394531-11.453125-3.820312-2.105468-4.21875-.394531-9.347657 3.824219-11.453126 15.222656-7.488281 28.121094-18.96875 37.324219-33.21875 8.761718-11.824218 18.359375-23 28.722656-33.445312 40.3125-40.34375 86.015625-53.125 128.667969-36.070312 46.324219 18.519531 141.464843 133.214843 166.960937 201.199218 19.429688 51.832032 1.792969 126.59375-26.949218 158.816406-6.664063 8.992188-16.9375 14.605469-28.105469 15.359376zm0 0"/><path d="m216.191406 430.011719c-17.476562 0-43.359375-6.382813-76.621094-32.1875-2.539062-1.820313-3.878906-4.882813-3.496093-7.980469.382812-3.101562 2.429687-5.742188 5.335937-6.890625 2.90625-1.144531 6.207032-.613281 8.601563 1.390625 30.125 23.347656 52.398437 28.550781 66.253906 28.550781h.1875c-20.183594-14.21875-39.339844-29.839843-57.324219-46.753906-18.757812-17.464844-35.761718-36.722656-50.773437-57.496094-23.140625-30.402343-37.457031-66.589843-41.386719-104.59375-2.046875-23.152343.863281-46.472656 8.53125-68.414062 1.023438-2.902344 3.527344-5.027344 6.554688-5.566407 3.03125-.539062 6.117187.59375 8.074218 2.96875 1.960938 2.371094 2.492188 5.613282 1.390625 8.488282-6.808593 19.671875-9.359375 40.570312-7.484375 61.300781 3.738282 34.882813 16.984375 68.066406 38.296875 95.933594 14.363281 19.859375 30.632813 38.269531 48.570313 54.972656 21.953125 20.75 45.789062 39.414063 71.203125 55.746094 2.5 1.527343 4.042969 4.226562 4.089843 7.15625.042969 2.925781-1.417968 5.671875-3.867187 7.273437-7.992187 4.382813-17.03125 6.496094-26.136719 6.101563zm0 0"/><path d="m88.566406 343.636719c-2.605468.003906-5.070312-1.183594-6.691406-3.222657-65.417969-82.433593-26.453125-170.617187-6.117188-205.449218 2.707032-7.585938 6.1875-14.875 10.382813-21.753906 28.613281-48.304688 83.328125-68.699219 124.953125-71.636719l.683594 8.535156v8.53125c-36.796875 2.605469-85.683594 20.652344-111.019532 63.402344-3.738281 6.121093-6.816406 12.621093-9.179687 19.390625-.183594.519531-.417969 1.019531-.699219 1.492187-18.433594 31.308594-54.929687 112.171875 4.359375 186.878907 2.03125 2.5625 2.417969 6.0625.996094 9.007812-1.417969 2.945312-4.398437 4.820312-7.667969 4.824219zm0 0"/><path d="m237.632812 425.300781c-3.757812.007813-7.082031-2.449219-8.175781-6.042969-1.097656-3.597656.289063-7.488281 3.414063-9.578124 16.800781-12.664063 30.410156-29.074219 39.75-47.925782 13.097656-26.1875 9.691406-95.886718 8.242187-125.652344-.308593-7.066406-.5625-12.542968-.5625-15.597656 0-2.238281-.164062-6.121094-.351562-11.28125-1.449219-37.308594-4.820313-124.683594 18.636719-163.78125 2.46875-3.945312 7.640624-5.183594 11.628906-2.789062 3.988281 2.398437 5.324218 7.546875 3 11.578125-20.839844 34.730469-17.476563 121.625-16.214844 154.332031.203125 5.464844.367188 9.578125.367188 11.949219 0 2.890625.257812 8.046875.582031 14.761719 1.773437 36.328124 5.074219 103.9375-10.011719 134.117187-10.605469 21.550781-26.234375 40.238281-45.566406 54.488281-1.40625.929688-3.050782 1.425782-4.738282 1.421875zm0 0"/><path d="m78.164062 488.390625c-4.109374 0-8.15625-.992187-11.800781-2.886719l-52.523437-27.152344c-6.929688-3.585937-11.847656-10.132812-13.355469-17.789062-1.507813-7.652344.554687-15.578125 5.605469-21.523438l102.765625-120.882812c1.984375-2.320312 5.050781-3.40625 8.050781-2.851562 3 .558593 5.476562 2.671874 6.496094 5.546874 1.019531 2.875.425781 6.078126-1.558594 8.398438l-102.738281 120.839844c-1.6875 1.980468-2.378907 4.617187-1.882813 7.171875.5 2.550781 2.132813 4.734375 4.441406 5.933593l52.523438 27.144532c3.902344 2.023437 8.707031.75 11.09375-2.941406l72.53125-112.113282c2.566406-3.953125 7.851562-5.078125 11.804688-2.511718 3.957031 2.566406 5.082031 7.851562 2.515624 11.804687l-72.535156 112.085937c-4.683594 7.304688-12.757812 11.722657-21.433594 11.726563zm0 0"/><path d="m58.433594 433.835938c-3.351563.003906-6.394532-1.957032-7.777344-5.007813-1.386719-3.050781-.855469-6.628906 1.351562-9.148437l59.734376-68.265626c3.105468-3.550781 8.5-3.910156 12.046874-.804687 3.550782 3.105469 3.910157 8.5.804688 12.050781l-59.734375 68.265625c-1.621094 1.851563-3.964844 2.910157-6.425781 2.910157zm0 0"/><path d="m399.765625 459.4375c-10.351563 0-19.6875-6.238281-23.648437-15.804688-3.964844-9.566406-1.773438-20.578124 5.546874-27.898437 7.324219-7.320313 18.332032-9.511719 27.898438-5.550781 9.566406 3.964844 15.804688 13.296875 15.804688 23.652344 0 14.136718-11.460938 25.601562-25.601563 25.601562zm0-34.136719c-4.710937 0-8.53125 3.820313-8.53125 8.535157 0 4.710937 3.820313 8.53125 8.53125 8.53125 4.714844 0 8.535156-3.820313 8.535156-8.53125 0-4.714844-3.820312-8.535157-8.535156-8.535157zm0 0"/><path d="m340.035156 450.902344c0 4.714844-3.820312 8.535156-8.535156 8.535156-4.710938 0-8.53125-3.820312-8.53125-8.535156 0-4.710938 3.820312-8.535156 8.53125-8.535156 4.714844 0 8.535156 3.824218 8.535156 8.535156zm0 0"/><path d="m365.632812 374.101562c0 4.714844-3.820312 8.535157-8.53125 8.535157-4.714843 0-8.535156-3.820313-8.535156-8.535157 0-4.710937 3.820313-8.53125 8.535156-8.53125 4.710938 0 8.53125 3.820313 8.53125 8.53125zm0 0"/><path d="m437.5 331.785156c-1.90625.023438-3.804688-.179687-5.664062-.605468-4.46875-1.199219-7.167969-5.738282-6.085938-10.234376 1.078125-4.496093 5.546875-7.316406 10.070312-6.355468 3.824219.476562 7.671876-.691406 10.582032-3.214844 4.890625-4.003906 13.097656-15.582031 13.097656-48.207031 0-4.710938 3.820312-8.53125 8.535156-8.53125 4.710938 0 8.53125 3.820312 8.53125 8.53125 0 30.722656-6.714844 51.558593-19.957031 61.894531-5.429687 4.332031-12.164063 6.703125-19.109375 6.722656zm0 0"/></svg>